{
    "asset" : {
        "generator" : "Khronos glTF Blender I/O v1.4.40",
        "version" : "2.0"
    },
    "scene" : 0,
    "scenes" : [
        {
            "name" : "Scene",
            "nodes" : [
                1,
                2,
                3
            ]
        }
    ],
    "nodes" : [
        {
            "mesh" : 0,
            "name" : "leaves"
        },
        {
            "children" : [
                0
            ],
            "mesh" : 1,
            "name" : "tree"
        },
        {
            "name" : "Sun"
        },
        {
            "name" : "Sun.001"
        }
    ],
    "materials" : [
        {
            "doubleSided" : true,
            "name" : "leaves",
            "pbrMetallicRoughness" : {
                "baseColorFactor" : [
                    0.0879705473780632,
                    0.8000000715255737,
                    0.04029866307973862,
                    1
                ],
                "metallicFactor" : 0,
                "roughnessFactor" : 0.5
            }
        },
        {
            "doubleSided" : true,
            "name" : "trunk",
            "pbrMetallicRoughness" : {
                "baseColorFactor" : [
                    0.1282394677400589,
                    0.052067406475543976,
                    0.008180500008165836,
                    1
                ],
                "metallicFactor" : 0,
                "roughnessFactor" : 0.5
            }
        }
    ],
    "meshes" : [
        {
            "name" : "leaves",
            "primitives" : [
                {
                    "attributes" : {
                        "POSITION" : 0,
                        "NORMAL" : 1,
                        "TEXCOORD_0" : 2
                    },
                    "indices" : 3,
                    "material" : 0
                }
            ]
        },
        {
            "name" : "tree.001",
            "primitives" : [
                {
                    "attributes" : {
                        "POSITION" : 4,
                        "NORMAL" : 5,
                        "TEXCOORD_0" : 6
                    },
                    "indices" : 7,
                    "material" : 1
                }
            ]
        }
    ],
    "accessors" : [
        {
            "bufferView" : 0,
            "componentType" : 5126,
            "count" : 49934,
            "max" : [
                3.2434182167053223,
                6.6452317237854,
                3.1341357231140137
            ],
            "min" : [
                -3.3053576946258545,
                0.21615949273109436,
                -3.5851757526397705
            ],
            "type" : "VEC3"
        },
        {
            "bufferView" : 1,
            "componentType" : 5126,
            "count" : 49934,
            "type" : "VEC3"
        },
        {
            "bufferView" : 2,
            "componentType" : 5126,
            "count" : 49934,
            "type" : "VEC2"
        },
        {
            "bufferView" : 3,
            "componentType" : 5123,
            "count" : 74904,
            "type" : "SCALAR"
        },
        {
            "bufferView" : 4,
            "componentType" : 5126,
            "count" : 29225,
            "max" : [
                3.030928611755371,
                6.2823896408081055,
                2.8328065872192383
            ],
            "min" : [
                -3.0091469287872314,
                0,
                -3.30578351020813
            ],
            "type" : "VEC3"
        },
        {
            "bufferView" : 5,
            "componentType" : 5126,
            "count" : 29225,
            "type" : "VEC3"
        },
        {
            "bufferView" : 6,
            "componentType" : 5126,
            "count" : 29225,
            "type" : "VEC2"
        },
        {
            "bufferView" : 7,
            "componentType" : 5123,
            "count" : 138384,
            "type" : "SCALAR"
        }
    ],
    "bufferViews" : [
        {
            "buffer" : 0,
            "byteLength" : 599208,
            "byteOffset" : 0
        },
        {
            "buffer" : 0,
            "byteLength" : 599208,
            "byteOffset" : 599208
        },
        {
            "buffer" : 0,
            "byteLength" : 399472,
            "byteOffset" : 1198416
        },
        {
            "buffer" : 0,
            "byteLength" : 149808,
            "byteOffset" : 1597888
        },
        {
            "buffer" : 0,
            "byteLength" : 350700,
            "byteOffset" : 1747696
        },
        {
            "buffer" : 0,
            "byteLength" : 350700,
            "byteOffset" : 2098396
        },
        {
            "buffer" : 0,
            "byteLength" : 233800,
            "byteOffset" : 2449096
        },
        {
            "buffer" : 0,
            "byteLength" : 276768,
            "byteOffset" : 2682896
        }
    ],
    "buffers" : [
        {
            "byteLength" : 2959664,
            "uri" : "data:application/octet-stream;base64,"
        }
    ]
}
